<svg width="22" height="20" viewBox="0 0 22 20" fill="none" xmlns="http://www.w3.org/2000/svg">
<path d="M20.3333 8.66671H4.51998L9.35998 2.85338C9.5863 2.58109 9.69518 2.23005 9.66267 1.87748C9.63017 1.52491 9.45893 1.19969 9.18665 0.973375C8.91436 0.747057 8.56332 0.638175 8.21075 0.670681C7.85818 0.703187 7.53296 0.87442 7.30665 1.14671L0.63998 9.14671C0.595127 9.21034 0.555019 9.27719 0.519979 9.34671C0.519979 9.41338 0.51998 9.45338 0.426647 9.52004C0.366211 9.67292 0.334568 9.83566 0.333313 10C0.334568 10.1644 0.366211 10.3272 0.426647 10.48C0.426647 10.5467 0.426646 10.5867 0.519979 10.6534C0.555019 10.7229 0.595127 10.7897 0.63998 10.8534L7.30665 18.8534C7.43201 19.0039 7.589 19.1249 7.76644 19.2079C7.94389 19.2908 8.13743 19.3337 8.33331 19.3334C8.64485 19.334 8.94676 19.2255 9.18665 19.0267C9.32166 18.9148 9.43326 18.7773 9.51506 18.6222C9.59686 18.467 9.64726 18.2973 9.66336 18.1227C9.67946 17.948 9.66095 17.7719 9.60889 17.6045C9.55683 17.437 9.47225 17.2814 9.35998 17.1467L4.51998 11.3334H20.3333C20.6869 11.3334 21.0261 11.1929 21.2761 10.9429C21.5262 10.6928 21.6666 10.3537 21.6666 10C21.6666 9.64642 21.5262 9.30728 21.2761 9.05723C21.0261 8.80719 20.6869 8.66671 20.3333 8.66671Z" fill="black"/>
</svg>
