<svg width="28" height="20" viewBox="0 0 28 20" fill="none" xmlns="http://www.w3.org/2000/svg">
<path d="M9.52003 0.973379C9.3853 0.861109 9.22974 0.776523 9.06227 0.724463C8.8948 0.672404 8.7187 0.653895 8.54407 0.669996C8.36943 0.686097 8.19969 0.736492 8.04456 0.818295C7.88943 0.900097 7.75196 1.0117 7.64003 1.14671L0.973361 9.14671C0.777252 9.38529 0.670044 9.68455 0.670044 9.99338C0.670044 10.3022 0.777252 10.6015 0.973361 10.84L7.41336 18.84C7.53885 18.9947 7.69741 19.1194 7.87738 19.2047C8.05735 19.2901 8.25417 19.3341 8.45336 19.3334C8.70568 19.3342 8.95305 19.2635 9.16676 19.1293C9.38046 18.9952 9.55172 18.8032 9.66063 18.5756C9.76954 18.348 9.81164 18.0942 9.78203 17.8436C9.75242 17.593 9.65232 17.356 9.49336 17.16L3.72003 10L9.69336 2.85338C9.80563 2.71865 9.89022 2.56309 9.94228 2.39562C9.99434 2.22815 10.0128 2.05205 9.99674 1.87742C9.98064 1.70278 9.93025 1.53304 9.84844 1.37791C9.76664 1.22278 9.65504 1.08531 9.52003 0.973379ZM27.04 9.16005L20.6667 1.16005C20.5567 1.02308 20.4207 0.909204 20.2665 0.824972C20.1123 0.74074 19.943 0.68781 19.7683 0.669225C19.5936 0.650639 19.4169 0.666764 19.2485 0.716673C19.08 0.766582 18.9231 0.84929 18.7867 0.960045C18.6497 1.07008 18.5359 1.20609 18.4516 1.36027C18.3674 1.51446 18.3145 1.68376 18.2959 1.85847C18.2773 2.03317 18.2934 2.20983 18.3433 2.37828C18.3932 2.54673 18.4759 2.70366 18.5867 2.84005L24.28 10L18.3067 17.16C18.1944 17.2948 18.1098 17.4503 18.0578 17.6178C18.0057 17.7853 17.9872 17.9614 18.0033 18.136C18.0194 18.3106 18.0698 18.4804 18.1516 18.6355C18.2334 18.7906 18.345 18.9281 18.48 19.04C18.7217 19.234 19.0235 19.3377 19.3334 19.3334C19.5292 19.3337 19.7228 19.2909 19.9002 19.2079C20.0777 19.1249 20.2347 19.0039 20.36 18.8534L27.0267 10.8534C27.2247 10.6163 27.3343 10.3179 27.3367 10.0091C27.3391 9.70026 27.2343 9.40016 27.04 9.16005Z" fill="#1D1D1B"/>
</svg>
