<svg width="22" height="22" viewBox="0 0 22 22" fill="none" xmlns="http://www.w3.org/2000/svg">
<path d="M21.6667 4.10661C21.6732 3.61142 21.5798 3.12 21.3919 2.66179C21.204 2.20357 20.9256 1.78799 20.5733 1.43994C19.8559 0.752158 18.9005 0.368164 17.9067 0.368164C16.9128 0.368164 15.9574 0.752158 15.24 1.43994L6.43998 10.2399H6.14665C4.63658 10.2805 3.19975 10.8994 2.13283 11.9688C1.0659 13.0382 0.450368 14.4764 0.413318 15.9866L0.333318 20.3333C0.328734 20.5132 0.360629 20.6922 0.427083 20.8595C0.493537 21.0268 0.593172 21.1789 0.719985 21.3066C0.979556 21.5405 1.31723 21.669 1.66665 21.6666L6.01332 21.5866C7.52348 21.5496 8.96175 20.934 10.0311 19.8671C11.1006 18.8002 11.7194 17.3633 11.76 15.8533V15.5466L20.5733 6.74661C20.9236 6.4026 21.2009 5.99152 21.3888 5.53793C21.5766 5.08434 21.6711 4.59754 21.6667 4.10661ZM5.99998 18.9199L2.99999 18.9999V16.0266C3.01398 15.1872 3.35729 14.3869 3.95589 13.7983C4.5545 13.2096 5.36045 12.8798 6.19998 12.8799C6.58097 12.8799 6.95815 12.9558 7.30947 13.1031C7.66079 13.2505 7.97921 13.4665 8.24612 13.7383C8.51302 14.0102 8.72305 14.3325 8.86394 14.6865C9.00483 15.0405 9.07374 15.419 9.06665 15.7999C9.04704 16.6121 8.71924 17.3864 8.14975 17.9658C7.58026 18.5452 6.81171 18.8863 5.99998 18.9199ZM18.6933 4.85327L10.8667 12.6799C10.6618 12.3751 10.4298 12.0895 10.1733 11.8266C9.91391 11.5663 9.6279 11.3339 9.31998 11.1333L17.1467 3.31994C17.355 3.12106 17.632 3.0101 17.92 3.0101C18.208 3.0101 18.485 3.12106 18.6933 3.31994C18.7946 3.42375 18.874 3.5469 18.9267 3.68206C18.9794 3.81722 19.0043 3.96161 19 4.10661C19.0005 4.24511 18.9736 4.38236 18.921 4.51048C18.8684 4.6386 18.791 4.75509 18.6933 4.85327Z" fill="white"/>
</svg>
