<svg width="14" height="9" viewBox="0 0 14 9" fill="none" xmlns="http://www.w3.org/2000/svg">
<path d="M6.99998 8.66671C6.8245 8.66772 6.65056 8.63409 6.48811 8.56774C6.32566 8.50138 6.1779 8.40362 6.05331 8.28004L0.71998 2.94671C0.595662 2.82239 0.497048 2.67481 0.429768 2.51238C0.362487 2.34995 0.327858 2.17586 0.327858 2.00004C0.327858 1.82423 0.362487 1.65014 0.429768 1.48771C0.497048 1.32528 0.595662 1.17769 0.71998 1.05338C0.844298 0.929058 0.991885 0.830444 1.15431 0.763163C1.31674 0.695883 1.49083 0.661255 1.66665 0.661255C1.84246 0.661255 2.01655 0.695883 2.17898 0.763163C2.34141 0.830444 2.489 0.929058 2.61331 1.05338L6.99998 5.46671L11.4 1.22671C11.5226 1.09032 11.6721 0.980712 11.8391 0.90473C12.006 0.828749 12.1868 0.788033 12.3702 0.785127C12.5537 0.782221 12.7357 0.817188 12.905 0.887843C13.0742 0.958497 13.2271 1.06332 13.354 1.19575C13.4809 1.32818 13.5792 1.48538 13.6426 1.6575C13.7059 1.82963 13.7331 2.01298 13.7224 2.1961C13.7117 2.37921 13.6634 2.55815 13.5803 2.72172C13.4973 2.88529 13.3815 3.02997 13.24 3.14671L7.90665 8.29338C7.66281 8.52846 7.33865 8.66194 6.99998 8.66671Z" fill="#0097CC"/>
</svg>
