<svg width="157" height="14" viewBox="0 0 157 14" fill="none" xmlns="http://www.w3.org/2000/svg">
<path d="M6.195 11.165C5.415 11.165 4.69 11.03 4.02 10.76C3.36 10.49 2.775 10.11 2.265 9.62C1.765 9.13 1.375 8.555 1.095 7.895C0.815 7.235 0.675 6.525 0.675 5.765C0.675 4.995 0.815 4.285 1.095 3.635C1.375 2.975 1.765 2.4 2.265 1.91C2.765 1.42 3.35 1.04 4.02 0.769999C4.69 0.499999 5.415 0.364999 6.195 0.364999C6.965 0.364999 7.68 0.499999 8.34 0.769999C9 1.04 9.58 1.42 10.08 1.91C10.58 2.4 10.97 2.975 11.25 3.635C11.53 4.285 11.67 4.995 11.67 5.765C11.67 6.525 11.53 7.235 11.25 7.895C10.97 8.555 10.58 9.13 10.08 9.62C9.58 10.11 9 10.49 8.34 10.76C7.68 11.03 6.965 11.165 6.195 11.165ZM6.195 10.43C6.845 10.43 7.45 10.31 8.01 10.07C8.57 9.83 9.06 9.5 9.48 9.08C9.91 8.66 10.245 8.165 10.485 7.595C10.725 7.025 10.845 6.41 10.845 5.75C10.845 5.09 10.725 4.48 10.485 3.92C10.245 3.35 9.91 2.855 9.48 2.435C9.06 2.015 8.57 1.69 8.01 1.46C7.45 1.22 6.845 1.1 6.195 1.1C5.535 1.1 4.92 1.22 4.35 1.46C3.79 1.69 3.295 2.015 2.865 2.435C2.445 2.855 2.115 3.35 1.875 3.92C1.645 4.48 1.53 5.09 1.53 5.75C1.53 6.41 1.645 7.025 1.875 7.595C2.115 8.165 2.445 8.66 2.865 9.08C3.295 9.5 3.79 9.83 4.35 10.07C4.92 10.31 5.535 10.43 6.195 10.43ZM8.76 7.52C8.51 7.92 8.165 8.23 7.725 8.45C7.295 8.66 6.815 8.765 6.285 8.765C5.315 8.765 4.555 8.51 4.005 8C3.465 7.48 3.195 6.77 3.195 5.87C3.195 5.25 3.33 4.705 3.6 4.235C3.87 3.765 4.245 3.4 4.725 3.14C5.215 2.87 5.775 2.735 6.405 2.735C6.955 2.735 7.415 2.835 7.785 3.035C8.165 3.235 8.495 3.54 8.775 3.95L7.605 4.73C7.475 4.48 7.295 4.3 7.065 4.19C6.845 4.08 6.62 4.025 6.39 4.025C5.91 4.025 5.515 4.195 5.205 4.535C4.905 4.865 4.755 5.3 4.755 5.84C4.755 6.36 4.89 6.765 5.16 7.055C5.43 7.345 5.815 7.49 6.315 7.49C6.545 7.49 6.78 7.425 7.02 7.295C7.27 7.165 7.475 6.965 7.635 6.695L8.76 7.52ZM24.8161 0.349999L24.5761 2.06H21.2761V11H19.3261V2.06H15.9061V0.349999H24.8161ZM25.7044 11V0.349999H27.6544V11H25.7044ZM36.8549 0.349999H38.7299V11H37.0199L31.7249 3.575V11H29.8499V0.349999H31.5599L36.8549 7.775V0.349999ZM47.7791 2.03H42.8291V4.775H47.5391V6.455H42.8291V9.32H47.9591L47.8241 11H40.9241V0.349999H47.7791V2.03ZM49.4055 11V0.349999H51.3555V9.29H56.0955L55.9605 11H49.4055ZM60.6981 11L61.1031 0.349999H62.7981L66.6981 8.555L70.5831 0.349999H72.2781L72.6081 11H70.7331L70.5231 4.37L67.3581 11H65.8881L62.7681 4.415L62.4981 11H60.6981ZM78.257 11.135C77.437 11.135 76.727 10.985 76.127 10.685C75.537 10.375 75.082 9.935 74.762 9.365C74.442 8.795 74.282 8.115 74.282 7.325C74.282 6.535 74.447 5.84 74.777 5.24C75.107 4.63 75.552 4.155 76.112 3.815C76.682 3.475 77.327 3.305 78.047 3.305C79.217 3.305 80.077 3.705 80.627 4.505C81.187 5.295 81.382 6.39 81.212 7.79H76.142C76.182 8.32 76.397 8.745 76.787 9.065C77.177 9.385 77.712 9.545 78.392 9.545C78.712 9.545 79.032 9.475 79.352 9.335C79.682 9.195 79.962 8.98 80.192 8.69L81.257 9.77C80.917 10.2 80.502 10.535 80.012 10.775C79.532 11.015 78.947 11.135 78.257 11.135ZM78.077 4.685C77.567 4.685 77.147 4.845 76.817 5.165C76.487 5.485 76.277 5.915 76.187 6.455H79.637C79.657 5.835 79.522 5.385 79.232 5.105C78.942 4.825 78.557 4.685 78.077 4.685ZM86.4015 11.135C85.5815 11.135 84.8715 10.985 84.2715 10.685C83.6815 10.375 83.2265 9.935 82.9065 9.365C82.5865 8.795 82.4265 8.115 82.4265 7.325C82.4265 6.535 82.5915 5.84 82.9215 5.24C83.2515 4.63 83.6965 4.155 84.2565 3.815C84.8265 3.475 85.4715 3.305 86.1915 3.305C87.3615 3.305 88.2215 3.705 88.7715 4.505C89.3315 5.295 89.5265 6.39 89.3565 7.79H84.2865C84.3265 8.32 84.5415 8.745 84.9315 9.065C85.3215 9.385 85.8565 9.545 86.5365 9.545C86.8565 9.545 87.1765 9.475 87.4965 9.335C87.8265 9.195 88.1065 8.98 88.3365 8.69L89.4015 9.77C89.0615 10.2 88.6465 10.535 88.1565 10.775C87.6765 11.015 87.0915 11.135 86.4015 11.135ZM86.2215 4.685C85.7115 4.685 85.2915 4.845 84.9615 5.165C84.6315 5.485 84.4215 5.915 84.3315 6.455H87.7815C87.8015 5.835 87.6665 5.385 87.3765 5.105C87.0865 4.825 86.7015 4.685 86.2215 4.685ZM94.0678 11.135C93.1578 11.135 92.4478 10.885 91.9378 10.385C91.4378 9.885 91.1928 9.23 91.2028 8.42L91.2628 4.955H89.9728V3.425H91.2928L91.3078 1.865H93.1378L93.1078 3.425H95.5828V4.955H93.0928L93.0478 8.225C93.0378 8.635 93.1378 8.96 93.3478 9.2C93.5678 9.43 93.8928 9.545 94.3228 9.545C94.5528 9.545 94.7678 9.515 94.9678 9.455C95.1678 9.395 95.3778 9.285 95.5978 9.125L96.1378 10.535C95.9078 10.735 95.6128 10.885 95.2528 10.985C94.8928 11.085 94.4978 11.135 94.0678 11.135ZM99.2787 11.135C98.4387 11.135 97.8037 10.85 97.3737 10.28C96.9537 9.71 96.7487 8.92 96.7587 7.91L96.7887 3.425H98.6187L98.5887 7.745C98.5787 8.265 98.6687 8.675 98.8587 8.975C99.0487 9.275 99.3487 9.425 99.7587 9.425C100.079 9.425 100.374 9.33 100.644 9.14C100.924 8.95 101.164 8.63 101.364 8.18C101.564 7.72 101.719 7.105 101.829 6.335C101.949 5.555 102.009 4.585 102.009 3.425H103.779V11H101.934L102.039 9.275C101.739 9.885 101.349 10.35 100.869 10.67C100.399 10.98 99.8687 11.135 99.2787 11.135ZM105.726 14V3.425H107.571L107.511 4.775C107.781 4.305 108.131 3.945 108.561 3.695C108.991 3.435 109.491 3.305 110.061 3.305C110.731 3.305 111.296 3.46 111.756 3.77C112.216 4.08 112.566 4.505 112.806 5.045C113.046 5.585 113.166 6.2 113.166 6.89C113.166 7.73 113.001 8.47 112.671 9.11C112.341 9.75 111.886 10.25 111.306 10.61C110.736 10.96 110.086 11.135 109.356 11.135C108.976 11.135 108.631 11.07 108.321 10.94C108.011 10.81 107.751 10.635 107.541 10.415L107.556 11V14H105.726ZM109.221 9.53C109.851 9.53 110.351 9.29 110.721 8.81C111.091 8.33 111.276 7.71 111.276 6.95C111.276 6.31 111.136 5.815 110.856 5.465C110.576 5.105 110.191 4.925 109.701 4.925C109.291 4.925 108.926 5.04 108.606 5.27C108.286 5.49 108.031 5.805 107.841 6.215C107.651 6.615 107.556 7.08 107.556 7.61C107.556 8.2 107.706 8.67 108.006 9.02C108.306 9.36 108.711 9.53 109.221 9.53ZM118.577 11V9.725C119.747 8.835 120.677 8.015 121.367 7.265C122.067 6.505 122.567 5.81 122.867 5.18C123.177 4.55 123.332 3.98 123.332 3.47C123.332 2.97 123.187 2.58 122.897 2.3C122.617 2.02 122.237 1.88 121.757 1.88C121.217 1.88 120.767 2.03 120.407 2.33C120.057 2.63 119.792 3.05 119.612 3.59L118.217 2.855C118.457 2.075 118.907 1.44 119.567 0.95C120.227 0.45 121.017 0.2 121.937 0.2C122.597 0.2 123.172 0.324999 123.662 0.574999C124.152 0.825 124.532 1.18 124.802 1.64C125.082 2.1 125.222 2.645 125.222 3.275C125.222 4.245 124.902 5.235 124.262 6.245C123.622 7.255 122.537 8.33 121.007 9.47H125.492V11H118.577ZM130.931 11.135C129.671 11.145 128.706 10.72 128.036 9.86C127.366 8.99 127.031 7.66 127.031 5.87C127.031 4.74 127.196 3.75 127.526 2.9C127.856 2.05 128.321 1.39 128.921 0.919999C129.531 0.439999 130.256 0.2 131.096 0.2C132.256 0.2 133.161 0.649999 133.811 1.55C134.471 2.45 134.801 3.755 134.801 5.465C134.801 6.595 134.641 7.585 134.321 8.435C134.011 9.285 133.566 9.95 132.986 10.43C132.406 10.9 131.721 11.135 130.931 11.135ZM130.886 9.47C131.526 9.47 132.021 9.13 132.371 8.45C132.731 7.77 132.911 6.775 132.911 5.465C132.911 4.285 132.751 3.39 132.431 2.78C132.111 2.16 131.651 1.85 131.051 1.85C130.391 1.85 129.871 2.2 129.491 2.9C129.121 3.6 128.936 4.58 128.936 5.84C128.936 7.07 129.096 7.985 129.416 8.585C129.746 9.175 130.236 9.47 130.886 9.47ZM136.565 11V9.725C137.735 8.835 138.665 8.015 139.355 7.265C140.055 6.505 140.555 5.81 140.855 5.18C141.165 4.55 141.32 3.98 141.32 3.47C141.32 2.97 141.175 2.58 140.885 2.3C140.605 2.02 140.225 1.88 139.745 1.88C139.205 1.88 138.755 2.03 138.395 2.33C138.045 2.63 137.78 3.05 137.6 3.59L136.205 2.855C136.445 2.075 136.895 1.44 137.555 0.95C138.215 0.45 139.005 0.2 139.925 0.2C140.585 0.2 141.16 0.324999 141.65 0.574999C142.14 0.825 142.52 1.18 142.79 1.64C143.07 2.1 143.21 2.645 143.21 3.275C143.21 4.245 142.89 5.235 142.25 6.245C141.61 7.255 140.525 8.33 138.995 9.47H143.48V11H136.565ZM148.919 11.135C147.659 11.145 146.694 10.72 146.024 9.86C145.354 8.99 145.019 7.66 145.019 5.87C145.019 4.74 145.184 3.75 145.514 2.9C145.844 2.05 146.309 1.39 146.909 0.919999C147.519 0.439999 148.244 0.2 149.084 0.2C150.244 0.2 151.149 0.649999 151.799 1.55C152.459 2.45 152.789 3.755 152.789 5.465C152.789 6.595 152.629 7.585 152.309 8.435C151.999 9.285 151.554 9.95 150.974 10.43C150.394 10.9 149.709 11.135 148.919 11.135ZM148.874 9.47C149.514 9.47 150.009 9.13 150.359 8.45C150.719 7.77 150.899 6.775 150.899 5.465C150.899 4.285 150.739 3.39 150.419 2.78C150.099 2.16 149.639 1.85 149.039 1.85C148.379 1.85 147.859 2.2 147.479 2.9C147.109 3.6 146.924 4.58 146.924 5.84C146.924 7.07 147.084 7.985 147.404 8.585C147.734 9.175 148.224 9.47 148.874 9.47ZM155.183 11.135C154.793 11.135 154.483 11.015 154.253 10.775C154.023 10.535 153.908 10.24 153.908 9.89C153.908 9.54 154.023 9.245 154.253 9.005C154.483 8.765 154.793 8.645 155.183 8.645C155.573 8.645 155.883 8.765 156.113 9.005C156.343 9.245 156.458 9.54 156.458 9.89C156.458 10.24 156.343 10.535 156.113 10.775C155.883 11.015 155.573 11.135 155.183 11.135Z" fill="#7F7F7F"/>
</svg>
