<svg width="24" height="24" viewBox="0 0 24 24" fill="none" xmlns="http://www.w3.org/2000/svg">
<path d="M20 0H4C2.93913 0 1.92172 0.421427 1.17157 1.17157C0.421427 1.92172 0 2.93913 0 4V20C0 21.0609 0.421427 22.0783 1.17157 22.8284C1.92172 23.5786 2.93913 24 4 24H20C21.0609 24 22.0783 23.5786 22.8284 22.8284C23.5786 22.0783 24 21.0609 24 20V4C24 2.93913 23.5786 1.92172 22.8284 1.17157C22.0783 0.421427 21.0609 0 20 0ZM4 2.66667H20C20.3536 2.66667 20.6928 2.80714 20.9428 3.05719C21.1929 3.30724 21.3333 3.64638 21.3333 4V6.66667H2.66667V4C2.66667 3.64638 2.80714 3.30724 3.05719 3.05719C3.30724 2.80714 3.64638 2.66667 4 2.66667ZM2.66667 20V9.33333H10.6667V21.3333H4C3.64638 21.3333 3.30724 21.1929 3.05719 20.9428C2.80714 20.6928 2.66667 20.3536 2.66667 20ZM20 21.3333H13.3333V9.33333H21.3333V20C21.3333 20.3536 21.1929 20.6928 20.9428 20.9428C20.6928 21.1929 20.3536 21.3333 20 21.3333Z" fill="#1D1D1B"/>
</svg>
