<svg width="22" height="30" viewBox="0 0 22 30" fill="none" xmlns="http://www.w3.org/2000/svg">
<path d="M9.81331 29.6667C9.6587 29.6665 9.50531 29.6395 9.35998 29.5867C9.07964 29.4841 8.84186 29.2903 8.68472 29.0365C8.52759 28.7826 8.46018 28.4834 8.49331 28.1867L9.51998 18.7334H1.66664C1.42442 18.7337 1.18667 18.6681 0.978929 18.5435C0.77119 18.419 0.601311 18.2402 0.487536 18.0263C0.37376 17.8125 0.320388 17.5717 0.333151 17.3298C0.345914 17.0879 0.42433 16.8541 0.559977 16.6534L11.08 0.920048C11.2464 0.673832 11.4902 0.490254 11.7729 0.39846C12.0555 0.306666 12.3607 0.311918 12.64 0.413381C12.9085 0.513065 13.1378 0.696561 13.2938 0.936701C13.4499 1.17684 13.5246 1.46086 13.5066 1.74671L12.48 11.2667H20.3333C20.5755 11.2663 20.8133 11.332 21.021 11.4565C21.2288 11.5811 21.3986 11.7599 21.5124 11.9738C21.6262 12.1876 21.6796 12.4284 21.6668 12.6703C21.654 12.9122 21.5756 13.146 21.44 13.3467L10.92 29.08C10.7977 29.261 10.6328 29.4091 10.4398 29.5114C10.2469 29.6137 10.0317 29.667 9.81331 29.6667ZM4.15998 16.0667H11C11.186 16.0672 11.3699 16.1065 11.5399 16.1823C11.7098 16.2581 11.862 16.3686 11.9866 16.5067C12.1125 16.6467 12.2072 16.8118 12.2647 16.991C12.3221 17.1703 12.341 17.3597 12.32 17.5467L11.72 23.08L17.84 13.9334H11C10.8118 13.9345 10.6256 13.8958 10.4534 13.8198C10.2813 13.7439 10.1272 13.6323 10.0013 13.4925C9.87533 13.3527 9.7804 13.1879 9.72273 13.0088C9.66506 12.8297 9.64594 12.6404 9.66664 12.4534L10.2666 6.92005L4.15998 16.0667Z" fill="#1D1D1B"/>
</svg>
